<svg version="1.1" xmlns="http://www.w3.org/2000/svg" xmlns:xlink="http://www.w3.org/1999/xlink" width="16" height="16" viewBox="0,0,256,256"><g fill="#5c7cfa" fill-rule="nonzero" stroke="none" stroke-width="1" stroke-linecap="butt" stroke-linejoin="miter" stroke-miterlimit="10" stroke-dasharray="" stroke-dashoffset="0" font-family="none" font-weight="none" font-size="none" text-anchor="none" style="mix-blend-mode: normal"><g transform="translate(0,-7.99359) scale(16,16)"><path d="M5.026,15c6.038,0 9.341,-5.003 9.341,-9.334c0,-0.14 0,-0.282 -0.006,-0.422c0.64306,-0.46551 1.19806,-1.04185 1.639,-1.702c-0.60069,0.26485 -1.23724,0.43941 -1.889,0.518c0.68653,-0.41036 1.20072,-1.05603 1.447,-1.817c-0.64501,0.38212 -1.35099,0.65037 -2.087,0.793c-1.01733,-1.08345 -2.63522,-1.34918 -3.94566,-0.64806c-1.31044,0.70112 -1.98715,2.19452 -1.65034,3.64206c-2.63968,-0.13236 -5.0992,-1.37866 -6.767,-3.429c-0.86886,1.50064 -0.42342,3.41807 1.018,4.382c-0.52046,-0.01768 -1.02948,-0.15744 -1.486,-0.408v0.045c0.00185,1.56158 1.10181,2.90644 2.632,3.218c-0.28174,0.07761 -0.57277,0.11631 -0.865,0.115c-0.20602,0.00062 -0.41162,-0.01846 -0.614,-0.057c0.43011,1.33685 1.66289,2.25209 3.067,2.277c-1.16344,0.9138 -2.6006,1.40941 -4.08,1.407c-0.26068,0.0011 -0.52118,-0.01393 -0.78,-0.045c1.50151,0.95726 3.2453,1.46555 5.026,1.465z"></path></g></g></svg>