<svg version="1.1" xmlns="http://www.w3.org/2000/svg" xmlns:xlink="http://www.w3.org/1999/xlink" width="16" height="16" viewBox="0,0,256,256"><g fill="#3254f4" fill-rule="nonzero" stroke="none" stroke-width="1" stroke-linecap="butt" stroke-linejoin="miter" stroke-miterlimit="10" stroke-dasharray="" stroke-dashoffset="0" font-family="none" font-weight="none" font-size="none" text-anchor="none" style="mix-blend-mode: normal"><g transform="scale(16,16)"><path d="M0,1.146c0,-0.633 0.526,-1.146 1.175,-1.146h13.65c0.649,0 1.175,0.513 1.175,1.146v13.708c0,0.633 -0.526,1.146 -1.175,1.146h-13.65c-0.649,0 -1.175,-0.513 -1.175,-1.146zM4.943,13.394v-7.225h-2.401v7.225zM3.743,5.182c0.837,0 1.358,-0.554 1.358,-1.248c-0.015,-0.709 -0.52,-1.248 -1.342,-1.248c-0.822,0 -1.359,0.54 -1.359,1.248c0,0.694 0.521,1.248 1.327,1.248zM8.651,13.394v-4.035c0,-0.216 0.016,-0.432 0.08,-0.586c0.173,-0.431 0.568,-0.878 1.232,-0.878c0.869,0 1.216,0.662 1.216,1.634v3.865h2.401v-4.144c0,-2.22 -1.184,-3.252 -2.764,-3.252c-1.274,0 -1.845,0.7 -2.165,1.193v0.025h-0.016c0.00531,-0.00835 0.01064,-0.01668 0.016,-0.025v-1.022h-2.4c0.03,0.678 0,7.225 0,7.225z"></path></g></g></svg>